<svg width="20" height="20" viewBox="0 0 20 20" fill="none" xmlns="http://www.w3.org/2000/svg">
<path d="M9.99999 0.400002C7.45392 0.400002 5.01212 1.41143 3.21177 3.21178C1.41142 5.01213 0.399994 7.45392 0.399994 10C0.40006 11.2607 0.648436 12.509 1.13094 13.6737C1.61345 14.8384 2.32063 15.8967 3.21212 16.7881C4.10361 17.6795 5.16194 18.3866 6.32669 18.8689C7.49145 19.3513 8.7398 19.5996 10.0005 19.5995C11.2612 19.5994 12.5095 19.3511 13.6742 18.8686C14.8389 18.386 15.8972 17.6789 16.7886 16.7874C17.68 15.8959 18.387 14.8376 18.8694 13.6728C19.3518 12.5081 19.6001 11.2597 19.6 9.999C19.6 4.698 15.301 0.400002 9.99999 0.400002ZM9.99999 17.599C8.99468 17.6105 7.99706 17.4225 7.06494 17.0457C6.13281 16.669 5.28469 16.1111 4.56972 15.4042C3.85474 14.6974 3.28711 13.8558 2.8997 12.928C2.5123 12.0003 2.31282 11.0049 2.31282 9.9995C2.31282 8.99412 2.5123 7.99873 2.8997 7.07098C3.28711 6.14324 3.85474 5.30158 4.56972 4.59476C5.28469 3.88793 6.13281 3.32999 7.06494 2.95326C7.99706 2.57652 8.99468 2.38847 9.99999 2.4C11.0053 2.38847 12.0029 2.57652 12.9351 2.95326C13.8672 3.32999 14.7153 3.88793 15.4303 4.59476C16.1453 5.30158 16.7129 6.14324 17.1003 7.07098C17.4877 7.99873 17.6872 8.99412 17.6872 9.9995C17.6872 11.0049 17.4877 12.0003 17.1003 12.928C16.7129 13.8558 16.1453 14.6974 15.4303 15.4042C14.7153 16.1111 13.8672 16.669 12.9351 17.0457C12.0029 17.4225 11.0053 17.6105 9.99999 17.599V17.599ZM7.50099 9.75C8.32899 9.75 8.99999 8.967 8.99999 8C8.99999 7.033 8.32799 6.25 7.49999 6.25C6.67199 6.25 5.99999 7.033 5.99999 8C5.99999 8.967 6.67199 9.75 7.50099 9.75V9.75ZM12.5 9.75C13.329 9.75 14 8.967 14 8C14 7.033 13.328 6.25 12.5 6.25C11.672 6.25 11 7.034 11 8C11 8.966 11.672 9.75 12.5 9.75ZM14.341 11.336C14.1645 11.247 13.9601 11.2306 13.7717 11.2904C13.5833 11.3502 13.4258 11.4815 13.333 11.656C13.299 11.722 12.464 13.249 10.001 13.249C7.54999 13.249 6.70999 11.736 6.66799 11.657C6.57809 11.4794 6.42132 11.3449 6.23219 11.2829C6.04306 11.2209 5.83706 11.2366 5.65949 11.3265C5.48193 11.4164 5.34736 11.5732 5.28538 11.7623C5.2234 11.9514 5.23909 12.1574 5.32899 12.335C5.37899 12.434 6.57699 14.749 10.001 14.749C13.426 14.749 14.622 12.433 14.671 12.334C14.7591 12.1578 14.7739 11.9539 14.712 11.7669C14.6502 11.5799 14.5168 11.4249 14.341 11.336Z" fill="#009E57"/>
</svg>
