<svg width="20" height="20" viewBox="0 0 20 20" fill="none" xmlns="http://www.w3.org/2000/svg">
<path d="M10.001 0.399994C4.69799 0.399994 0.399994 4.69799 0.399994 9.99999C0.399863 11.2609 0.64811 12.5094 1.13056 13.6743C1.61301 14.8392 2.32021 15.8977 3.21177 16.7892C4.10333 17.6808 5.16179 18.388 6.32669 18.8704C7.4916 19.3529 8.74014 19.6011 10.001 19.601C15.302 19.601 19.601 15.303 19.601 9.99999C19.6 4.69799 15.301 0.399994 10.001 0.399994V0.399994ZM9.99999 17.599C9.00195 17.599 8.01367 17.4024 7.0916 17.0205C6.16952 16.6385 5.33171 16.0787 4.62598 15.373C3.92026 14.6673 3.36045 13.8295 2.97851 12.9074C2.59657 11.9853 2.39999 10.997 2.39999 9.99899C2.39999 9.00095 2.59657 8.01267 2.97851 7.0906C3.36045 6.16853 3.92026 5.33071 4.62598 4.62498C5.33171 3.91926 6.16952 3.35945 7.0916 2.97751C8.01367 2.59557 9.00195 2.39899 9.99999 2.39899C12.0156 2.39899 13.9487 3.19971 15.374 4.62498C16.7993 6.05026 17.6 7.98335 17.6 9.99899C17.6 12.0146 16.7993 13.9477 15.374 15.373C13.9487 16.7983 12.0156 17.599 9.99999 17.599ZM12.501 9.74999C13.329 9.74999 14.001 8.96699 14.001 7.99999C14.001 7.03299 13.329 6.24999 12.501 6.24999C11.673 6.24999 11.001 7.03299 11.001 7.99999C11.001 8.96699 11.672 9.74999 12.501 9.74999ZM7.50099 9.74999C8.32899 9.74999 9.00099 8.96699 9.00099 7.99999C9.00099 7.03299 8.32899 6.24999 7.50099 6.24999C6.67299 6.24999 6.00099 7.03299 6.00099 7.99999C6.00099 8.96699 6.67199 9.74999 7.50099 9.74999ZM10.002 11.25C6.57799 11.25 5.37999 13.565 5.32999 13.664C5.24088 13.842 5.22611 14.048 5.28894 14.2369C5.35176 14.4257 5.48703 14.5819 5.66499 14.671C5.84295 14.7601 6.04903 14.7749 6.23787 14.7121C6.42672 14.6492 6.58288 14.514 6.67199 14.336C6.67999 14.319 7.49399 12.75 10.002 12.75C12.465 12.75 13.3 14.277 13.33 14.335C13.3735 14.4239 13.4342 14.5033 13.5086 14.5686C13.5829 14.634 13.6695 14.6839 13.7632 14.7157C13.857 14.7474 13.9561 14.7602 14.0549 14.7535C14.1536 14.7467 14.2501 14.7204 14.3386 14.6762C14.4272 14.632 14.5061 14.5707 14.5709 14.4958C14.6356 14.421 14.6849 14.334 14.7159 14.24C14.7469 14.146 14.759 14.0468 14.7514 13.9481C14.7439 13.8494 14.7169 13.7532 14.672 13.665C14.623 13.566 13.426 11.25 10.002 11.25Z" fill="black"/>
</svg>
